<svg version="1" xmlns="http://www.w3.org/2000/svg" width="544" height="544" viewBox="0 0 408.000000 408.000000"><path d="M196.7 12.2c-4.1 6.8-10.3 17.3-13.7 23.4-7.2 13.2-20 40.7-20 43.1 0 3-1.6.2-6-10.2-8.8-21-33.5-66.2-36.7-67.2C117.7.4 89.1 52.2 81 72.5c-1.8 4.4-3.8 9.4-4.5 11-6.3 14.2-17.2 55.8-19 72.5-.4 3-.8 6.1-1.1 6.9-2.5 7.7-2.5 65.9 0 81.1.3 1.4.7 4.5 1 7 .3 2.5.8 5.6 1.1 7 .3 1.4.8 4.1 1.1 6 .2 1.9 1.2 6.6 2 10.5.9 3.8 1.7 7.8 1.9 8.7 2 9.6 11.3 40.1 14.5 47.3.4 1.1 3.2 7.6 6.1 14.4 6.4 15.3 14.5 31.1 23.6 46.1 9.1 15.1 9.7 16 10.3 16 .7 0 6.2-8.6 14.8-22.9 8.8-14.8 19.1-35.1 26.4-52l1.9-4.5 5 12.5c5.7 14.2 19.2 40.6 26.7 52.4 2.8 4.4 5.9 9.5 6.8 11.3.9 1.7 2 3.2 2.4 3.2.7 0 13.9-20.4 19.1-29.6 5.4-9.6 15.9-30.7 19.4-38.9 2-5 4-9.3 4.4-9.7.4-.4 2.6 4.1 5 10.1 7.4 18.8 26.8 55.4 34.9 66l1.9 2.3 3.5-5.3c14.3-21.9 26.7-44.9 36.3-67.4 11.2-26.4 21.9-64.3 24.1-86 .4-3.3.8-6.3 1-6.6 2.4-4.2 2.4-73.7 0-77.8-.2-.3-.7-3.7-1.1-7.6-.4-3.8-.9-7.3-1.1-7.6-.2-.4-.6-2.4-.9-4.4-.2-2.1-.7-4.5-.9-5.4-.3-.9-.8-3.2-1.1-5.1-2.5-14.5-13.4-48.6-21.1-65.8-1.3-2.9-2.4-5.5-2.4-5.8 0-1.8-17.2-34.6-22.6-43.2-1.9-2.9-3.4-5.5-3.4-5.8 0-.2-1.9-3.4-4.3-6.9L288.4.1l-8.1 13.2c-14.3 23.5-21.6 37.5-30.4 58.2-3 7.1-3.9 8.6-4.5 7-2.2-6.2-13.1-29.9-18.2-39.7C222.7 30.1 206.1 2 204.6.2c-.2-.1-3.7 5.3-7.9 12z"/></svg>